<?xml version="1.0" encoding="UTF-8" standalone="no"?>
<!DOCTYPE svg PUBLIC "-//W3C//DTD SVG 1.1//EN"
 "http://www.w3.org/Graphics/SVG/1.1/DTD/svg11.dtd">
<!-- Generated by graphviz version 2.40.1 (20161225.0304)
 -->
<!-- Title: view_mechanism Pages: 1 -->
<svg width="252pt" height="364pt"
 viewBox="0.00 0.00 252.08 363.91" xmlns="http://www.w3.org/2000/svg" xmlns:xlink="http://www.w3.org/1999/xlink">
<g id="graph0" class="graph" transform="scale(1 1) rotate(0) translate(4 359.9117)">
<title>view_mechanism</title>
<polygon fill="#ffffff" stroke="transparent" points="-4,4 -4,-359.9117 248.0811,-359.9117 248.0811,4 -4,4"/>
<text text-anchor="middle" x="122.0405" y="-6.8" font-family="Times,serif" font-size="14.00" fill="#000000">How view, url, templates work together?</text>
<!-- A -->
<g id="node1" class="node">
<title>A</title>
<text text-anchor="middle" x="40.0276" y="-344.7117" font-family="Times,serif" font-size="14.00" fill="#000000">Http</text>
<text text-anchor="middle" x="40.0276" y="-330.7117" font-family="Times,serif" font-size="14.00" fill="#000000"> Request</text>
</g>
<!-- B -->
<g id="node2" class="node">
<title>B</title>
<polygon fill="none" stroke="#000000" points="11.0276,-255.4117 11.0276,-291.4117 69.0276,-291.4117 69.0276,-255.4117 11.0276,-255.4117"/>
<text text-anchor="middle" x="40.0276" y="-276.2117" font-family="Times,serif" font-size="14.00" fill="#000000">URL</text>
<text text-anchor="middle" x="40.0276" y="-262.2117" font-family="Times,serif" font-size="14.00" fill="#000000"> urls.py</text>
</g>
<!-- A&#45;&gt;B -->
<g id="edge1" class="edge">
<title>A&#45;&gt;B</title>
<path fill="none" stroke="#000000" d="M40.0276,-327.7184C40.0276,-320.1699 40.0276,-310.6145 40.0276,-301.6308"/>
<polygon fill="#000000" stroke="#000000" points="43.5277,-301.5016 40.0276,-291.5017 36.5277,-301.5017 43.5277,-301.5016"/>
</g>
<!-- C -->
<g id="node3" class="node">
<title>C</title>
<polygon fill="none" stroke="#000000" points="50.5344,-182.4117 50.5344,-218.4117 129.5208,-218.4117 129.5208,-182.4117 50.5344,-182.4117"/>
<text text-anchor="middle" x="90.0276" y="-203.2117" font-family="Times,serif" font-size="14.00" fill="#000000">View</text>
<text text-anchor="middle" x="90.0276" y="-189.2117" font-family="Times,serif" font-size="14.00" fill="#000000"> (views.py)</text>
</g>
<!-- B&#45;&gt;C -->
<g id="edge2" class="edge">
<title>B&#45;&gt;C</title>
<path fill="none" stroke="#000000" d="M52.3871,-255.3667C58.2766,-246.7681 65.4362,-236.3151 71.9237,-226.8433"/>
<polygon fill="#000000" stroke="#000000" points="74.8736,-228.7302 77.6369,-218.502 69.0984,-224.7745 74.8736,-228.7302"/>
</g>
<!-- D -->
<g id="node4" class="node">
<title>D</title>
<polygon fill="none" stroke="#000000" points="46.6448,-109.4117 46.6448,-145.4117 133.4104,-145.4117 133.4104,-109.4117 46.6448,-109.4117"/>
<text text-anchor="middle" x="90.0276" y="-130.2117" font-family="Times,serif" font-size="14.00" fill="#000000">Models</text>
<text text-anchor="middle" x="90.0276" y="-116.2117" font-family="Times,serif" font-size="14.00" fill="#000000"> (models.py)</text>
</g>
<!-- C&#45;&gt;D -->
<g id="edge3" class="edge">
<title>C&#45;&gt;D</title>
<path fill="none" stroke="#000000" d="M84.1119,-182.3667C83.3134,-174.2945 83.0881,-164.5881 83.4359,-155.5934"/>
<polygon fill="#000000" stroke="#000000" points="86.9356,-155.7124 84.1074,-145.502 79.951,-155.2476 86.9356,-155.7124"/>
</g>
<!-- F -->
<g id="node6" class="node">
<title>F</title>
<text text-anchor="middle" x="192.0276" y="-123.2117" font-family="Times,serif" font-size="14.00" fill="#000000">Http Response</text>
</g>
<!-- C&#45;&gt;F -->
<g id="edge8" class="edge">
<title>C&#45;&gt;F</title>
<path fill="none" stroke="#000000" d="M115.2411,-182.3667C133.4593,-169.3282 157.635,-152.026 173.9541,-140.3466"/>
<polygon fill="#000000" stroke="#000000" points="176.0293,-143.1655 182.1242,-134.4994 171.9553,-137.4732 176.0293,-143.1655"/>
</g>
<!-- D&#45;&gt;C -->
<g id="edge4" class="edge">
<title>D&#45;&gt;C</title>
<path fill="none" stroke="#000000" d="M95.9478,-145.502C96.7441,-153.5804 96.9673,-163.2886 96.6173,-172.2805"/>
<polygon fill="#000000" stroke="#000000" points="93.118,-172.1556 95.9433,-182.3667 100.1024,-172.6224 93.118,-172.1556"/>
</g>
<!-- G -->
<g id="node7" class="node">
<title>G</title>
<ellipse fill="none" stroke="#000000" cx="90.0276" cy="-47.4558" rx="47.682" ry="25.4118"/>
<text text-anchor="middle" x="90.0276" y="-50.2558" font-family="Times,serif" font-size="14.00" fill="#000000">Database</text>
<text text-anchor="middle" x="90.0276" y="-36.2558" font-family="Times,serif" font-size="14.00" fill="#000000"> server</text>
</g>
<!-- D&#45;&gt;G -->
<g id="edge6" class="edge">
<title>D&#45;&gt;G</title>
<path fill="none" stroke="#000000" d="M84.2668,-109.2685C83.4758,-101.435 83.1592,-91.9882 83.317,-82.8632"/>
<polygon fill="#000000" stroke="#000000" points="86.817,-82.9256 83.6967,-72.8007 79.822,-82.6616 86.817,-82.9256"/>
</g>
<!-- E -->
<g id="node5" class="node">
<title>E</title>
<polygon fill="none" stroke="#000000" points="86.9275,-255.4117 86.9275,-291.4117 193.1277,-291.4117 193.1277,-255.4117 86.9275,-255.4117"/>
<text text-anchor="middle" x="140.0276" y="-276.2117" font-family="Times,serif" font-size="14.00" fill="#000000">Template</text>
<text text-anchor="middle" x="140.0276" y="-262.2117" font-family="Times,serif" font-size="14.00" fill="#000000"> (filename.html)</text>
</g>
<!-- E&#45;&gt;C -->
<g id="edge5" class="edge">
<title>E&#45;&gt;C</title>
<path fill="none" stroke="#000000" d="M127.668,-255.3667C121.7785,-246.7681 114.6189,-236.3151 108.1315,-226.8433"/>
<polygon fill="#000000" stroke="#000000" points="110.9568,-224.7745 102.4182,-218.502 105.1816,-228.7302 110.9568,-224.7745"/>
</g>
<!-- G&#45;&gt;D -->
<g id="edge7" class="edge">
<title>G&#45;&gt;D</title>
<path fill="none" stroke="#000000" d="M96.3585,-72.8007C96.8623,-81.2242 96.9119,-90.6532 96.5072,-99.2746"/>
<polygon fill="#000000" stroke="#000000" points="93.0149,-99.0431 95.7884,-109.2685 99.9969,-99.5454 93.0149,-99.0431"/>
</g>
</g>
</svg>
