<?xml version="1.0" encoding="UTF-8" standalone="no"?>
<!DOCTYPE svg PUBLIC "-//W3C//DTD SVG 1.1//EN"
 "http://www.w3.org/Graphics/SVG/1.1/DTD/svg11.dtd">
<!-- Generated by graphviz version 2.40.1 (20161225.0304)
 -->
<!-- Title: Django Pages: 1 -->
<svg width="470pt" height="398pt"
 viewBox="0.00 0.00 470.46 398.00" xmlns="http://www.w3.org/2000/svg" xmlns:xlink="http://www.w3.org/1999/xlink">
<g id="graph0" class="graph" transform="scale(1 1) rotate(0) translate(4 394)">
<title>Django</title>
<polygon fill="#ffffff" stroke="transparent" points="-4,4 -4,-394 466.459,-394 466.459,4 -4,4"/>
<text text-anchor="middle" x="231.2295" y="-6.8" font-family="Times,serif" font-size="14.00" fill="#000000">A clue to help me recall how to start building web application using Django</text>
<!-- A -->
<g id="node1" class="node">
<title>A</title>
<polygon fill="none" stroke="#000000" points="0,-217.5 0,-253.5 103.4727,-253.5 103.4727,-217.5 0,-217.5"/>
<text text-anchor="middle" x="51.7363" y="-238.3" font-family="Times,serif" font-size="14.00" fill="#000000">Django project:</text>
<text text-anchor="middle" x="51.7363" y="-224.3" font-family="Times,serif" font-size="14.00" fill="#000000"> FreeAir</text>
</g>
<!-- A1 -->
<g id="node2" class="node">
<title>A1</title>
<polygon fill="none" stroke="#000000" points="139.4727,-301.5 139.4727,-337.5 229.7314,-337.5 229.7314,-301.5 139.4727,-301.5"/>
<text text-anchor="middle" x="184.6021" y="-322.3" font-family="Times,serif" font-size="14.00" fill="#000000">Developing</text>
<text text-anchor="middle" x="184.6021" y="-308.3" font-family="Times,serif" font-size="14.00" fill="#000000"> environment</text>
</g>
<!-- A&#45;&gt;A1 -->
<g id="edge1" class="edge">
<title>A&#45;&gt;A1</title>
<path fill="none" stroke="#00eeee" d="M80.2394,-253.5201C99.8084,-265.892 125.9808,-282.4386 147.22,-295.8664"/>
<polygon fill="#00eeee" stroke="#00eeee" points="145.3649,-298.8344 155.6877,-301.2199 149.1056,-292.9177 145.3649,-298.8344"/>
</g>
<!-- A2 -->
<g id="node4" class="node">
<title>A2</title>
<polygon fill="#ff0000" stroke="#000000" points="150.9502,-217.5 150.9502,-253.5 218.2539,-253.5 218.2539,-217.5 150.9502,-217.5"/>
<text text-anchor="middle" x="184.6021" y="-238.3" font-family="Times,serif" font-size="14.00" fill="#000000">Database</text>
<text text-anchor="middle" x="184.6021" y="-224.3" font-family="Times,serif" font-size="14.00" fill="#000000"> servers</text>
</g>
<!-- A&#45;&gt;A2 -->
<g id="edge2" class="edge">
<title>A&#45;&gt;A2</title>
<path fill="none" stroke="#00eeee" d="M103.4861,-235.5C115.7717,-235.5 128.7626,-235.5 140.6618,-235.5"/>
<polygon fill="#00eeee" stroke="#00eeee" points="140.7925,-239.0001 150.7925,-235.5 140.7925,-232.0001 140.7925,-239.0001"/>
</g>
<!-- FS -->
<g id="node6" class="node">
<title>FS</title>
<polygon fill="none" stroke="#000000" points="147.4365,-125.5 147.4365,-161.5 221.7676,-161.5 221.7676,-125.5 147.4365,-125.5"/>
<text text-anchor="middle" x="184.6021" y="-146.3" font-family="Times,serif" font-size="14.00" fill="#000000">Main file</text>
<text text-anchor="middle" x="184.6021" y="-132.3" font-family="Times,serif" font-size="14.00" fill="#000000"> to modify</text>
</g>
<!-- A&#45;&gt;FS -->
<g id="edge3" class="edge">
<title>A&#45;&gt;FS</title>
<path fill="none" stroke="#00eeee" d="M77.9863,-217.3238C98.6408,-203.022 127.5961,-182.9725 150.1198,-167.3765"/>
<polygon fill="#00eeee" stroke="#00eeee" points="152.1776,-170.2088 158.4066,-161.6385 148.1926,-164.4538 152.1776,-170.2088"/>
</g>
<!-- a1b -->
<g id="node3" class="node">
<title>a1b</title>
<polygon fill="none" stroke="#000000" points="275.2778,-309.5 275.2778,-389.5 340.6333,-389.5 340.6333,-309.5 275.2778,-309.5"/>
<text text-anchor="middle" x="307.9556" y="-374.3" font-family="Times,serif" font-size="14.00" fill="#000000">Python</text>
<polyline fill="none" stroke="#000000" points="275.2778,-367.5 340.6333,-367.5 "/>
<text text-anchor="middle" x="307.9556" y="-352.3" font-family="Times,serif" font-size="14.00" fill="#000000">Django</text>
<polyline fill="none" stroke="#000000" points="275.2778,-345.5 340.6333,-345.5 "/>
<text text-anchor="middle" x="307.9556" y="-330.3" font-family="Times,serif" font-size="14.00" fill="#000000">Django</text>
<text text-anchor="middle" x="307.9556" y="-316.3" font-family="Times,serif" font-size="14.00" fill="#000000"> package</text>
</g>
<!-- A1&#45;&gt;a1b -->
<g id="edge4" class="edge">
<title>A1&#45;&gt;a1b</title>
<path fill="none" stroke="#000000" d="M229.8339,-330.5005C241.4275,-333.3201 253.8573,-336.3431 265.3154,-339.1298"/>
<polygon fill="#000000" stroke="#000000" points="264.5451,-342.5444 275.089,-341.5067 266.1993,-335.7426 264.5451,-342.5444"/>
</g>
<!-- a2b -->
<g id="node5" class="node">
<title>a2b</title>
<polygon fill="none" stroke="#000000" points="265.7314,-180.5 265.7314,-290.5 350.1797,-290.5 350.1797,-180.5 265.7314,-180.5"/>
<text text-anchor="middle" x="307.9556" y="-275.3" font-family="Times,serif" font-size="14.00" fill="#000000">PostgreSQL</text>
<polyline fill="none" stroke="#000000" points="265.7314,-268.5 350.1797,-268.5 "/>
<text text-anchor="middle" x="307.9556" y="-253.3" font-family="Times,serif" font-size="14.00" fill="#000000">MySQL</text>
<polyline fill="none" stroke="#000000" points="265.7314,-246.5 350.1797,-246.5 "/>
<text text-anchor="middle" x="307.9556" y="-231.3" font-family="Times,serif" font-size="14.00" fill="#000000">Oracle</text>
<polyline fill="none" stroke="#000000" points="265.7314,-224.5 350.1797,-224.5 "/>
<text text-anchor="middle" x="307.9556" y="-209.3" font-family="Times,serif" font-size="14.00" fill="#000000">SQLite</text>
<polyline fill="none" stroke="#000000" points="265.7314,-202.5 350.1797,-202.5 "/>
<text text-anchor="middle" x="307.9556" y="-187.3" font-family="Times,serif" font-size="14.00" fill="#000000">...</text>
</g>
<!-- A2&#45;&gt;a2b -->
<g id="edge7" class="edge">
<title>A2&#45;&gt;a2b</title>
<path fill="none" stroke="#000000" d="M218.3089,-235.5C229.6777,-235.5 242.655,-235.5 255.1379,-235.5"/>
<polygon fill="#000000" stroke="#000000" points="255.4611,-239.0001 265.4611,-235.5 255.4611,-232.0001 255.4611,-239.0001"/>
</g>
<!-- A3 -->
<g id="node7" class="node">
<title>A3</title>
<polygon fill="none" stroke="#000000" points="278.1865,-125.5 278.1865,-161.5 337.7246,-161.5 337.7246,-125.5 278.1865,-125.5"/>
<text text-anchor="middle" x="307.9556" y="-139.3" font-family="Times,serif" font-size="14.00" fill="#000000">FreeAir</text>
</g>
<!-- FS&#45;&gt;A3 -->
<g id="edge5" class="edge">
<title>FS&#45;&gt;A3</title>
<path fill="none" stroke="#ff0000" d="M221.9469,-143.5C236.4403,-143.5 253.0686,-143.5 267.8176,-143.5"/>
<polygon fill="#ff0000" stroke="#ff0000" points="268.1677,-147.0001 278.1676,-143.5 268.1676,-140.0001 268.1677,-147.0001"/>
</g>
<!-- A4 -->
<g id="node9" class="node">
<title>A4</title>
<polygon fill="none" stroke="#000000" points="280.7192,-63.5 280.7192,-99.5 335.1919,-99.5 335.1919,-63.5 280.7192,-63.5"/>
<text text-anchor="middle" x="307.9556" y="-84.3" font-family="Times,serif" font-size="14.00" fill="#000000">App:</text>
<text text-anchor="middle" x="307.9556" y="-70.3" font-family="Times,serif" font-size="14.00" fill="#000000"> article</text>
</g>
<!-- FS&#45;&gt;A4 -->
<g id="edge6" class="edge">
<title>FS&#45;&gt;A4</title>
<path fill="none" stroke="#ff0000" d="M220.6126,-125.4004C236.544,-117.3929 255.2561,-107.9878 271.2653,-99.9413"/>
<polygon fill="#ff0000" stroke="#ff0000" points="272.9744,-102.9996 280.3374,-95.3814 269.8307,-96.7451 272.9744,-102.9996"/>
</g>
<!-- a3b -->
<g id="node8" class="node">
<title>a3b</title>
<polygon fill="none" stroke="#ffff00" points="386.1797,-129.5 386.1797,-173.5 462.459,-173.5 462.459,-129.5 386.1797,-129.5"/>
<text text-anchor="middle" x="424.3193" y="-158.3" font-family="Times,serif" font-size="14.00" fill="#000000">settings.py</text>
<polyline fill="none" stroke="#ffff00" points="386.1797,-151.5 462.459,-151.5 "/>
<text text-anchor="middle" x="424.3193" y="-136.3" font-family="Times,serif" font-size="14.00" fill="#000000">urls.py</text>
</g>
<!-- A3&#45;&gt;a3b -->
<g id="edge8" class="edge">
<title>A3&#45;&gt;a3b</title>
<path fill="none" stroke="#000000" d="M337.9221,-145.5602C349.5056,-146.3566 363.0577,-147.2883 375.9482,-148.1745"/>
<polygon fill="#000000" stroke="#000000" points="375.8776,-151.6778 386.0941,-148.872 376.3577,-144.6943 375.8776,-151.6778"/>
</g>
<!-- a4b -->
<g id="node10" class="node">
<title>a4b</title>
<polygon fill="none" stroke="#00fa9a" points="387.3486,-22.5 387.3486,-110.5 461.29,-110.5 461.29,-22.5 387.3486,-22.5"/>
<text text-anchor="middle" x="424.3193" y="-95.3" font-family="Times,serif" font-size="14.00" fill="#000000">admin.py</text>
<polyline fill="none" stroke="#00fa9a" points="387.3486,-88.5 461.29,-88.5 "/>
<text text-anchor="middle" x="424.3193" y="-73.3" font-family="Times,serif" font-size="14.00" fill="#000000">models.py</text>
<polyline fill="none" stroke="#00fa9a" points="387.3486,-66.5 461.29,-66.5 "/>
<text text-anchor="middle" x="424.3193" y="-51.3" font-family="Times,serif" font-size="14.00" fill="#000000">urls.py</text>
<polyline fill="none" stroke="#00fa9a" points="387.3486,-44.5 461.29,-44.5 "/>
<text text-anchor="middle" x="424.3193" y="-29.3" font-family="Times,serif" font-size="14.00" fill="#000000">views.py</text>
</g>
<!-- A4&#45;&gt;a4b -->
<g id="edge9" class="edge">
<title>A4&#45;&gt;a4b</title>
<path fill="none" stroke="#000000" d="M335.2377,-77.9832C347.6703,-76.3805 362.7548,-74.436 376.9494,-72.6063"/>
<polygon fill="#000000" stroke="#000000" points="377.6069,-76.0506 387.0773,-71.3007 376.7119,-69.108 377.6069,-76.0506"/>
</g>
</g>
</svg>
