<?xml version="1.0" encoding="UTF-8" standalone="no"?>
<!DOCTYPE svg PUBLIC "-//W3C//DTD SVG 1.1//EN"
 "http://www.w3.org/Graphics/SVG/1.1/DTD/svg11.dtd">
<!-- Generated by graphviz version 2.38.0 (20140413.2041)
 -->
<!-- Title: G Pages: 1 -->
<svg width="1015pt" height="286pt"
 viewBox="0.00 0.00 1014.69 286.00" xmlns="http://www.w3.org/2000/svg" xmlns:xlink="http://www.w3.org/1999/xlink">
<g id="graph0" class="graph" transform="scale(1 1) rotate(0) translate(4 282)">
<title>G</title>
<polygon fill="white" stroke="none" points="-4,4 -4,-282 1010.69,-282 1010.69,4 -4,4"/>
<text text-anchor="middle" x="503.344" y="-7.8" font-family="Times,serif" font-size="14.00">The Set of Software and Methods related with Hexo</text>
<!-- o -->
<g id="node1" class="node"><title>o</title>
<polygon fill="none" stroke="black" points="407,-241.5 407,-277.5 461,-277.5 461,-241.5 407,-241.5"/>
<text text-anchor="middle" x="434" y="-255.8" font-family="Times,serif" font-size="14.00">Hexo</text>
</g>
<!-- part1 -->
<g id="node2" class="node"><title>part1</title>
<ellipse fill="none" stroke="green" cx="186" cy="-187" rx="83.3857" ry="18"/>
<text text-anchor="middle" x="186" y="-183.3" font-family="Times,serif" font-size="14.00">Part1: Build website</text>
</g>
<!-- o&#45;&gt;part1 -->
<g id="edge1" class="edge"><title>o&#45;&gt;part1</title>
<path fill="none" stroke="black" d="M406.988,-250.821C368.068,-239.757 295.258,-219.059 243.869,-204.451"/>
<polygon fill="black" stroke="black" points="244.79,-201.074 234.214,-201.706 242.876,-207.807 244.79,-201.074"/>
</g>
<!-- part2 -->
<g id="node8" class="node"><title>part2</title>
<ellipse fill="none" stroke="green" cx="434" cy="-187" rx="120.779" ry="18"/>
<text text-anchor="middle" x="434" y="-183.3" font-family="Times,serif" font-size="14.00">Part2: Host the code repository</text>
</g>
<!-- o&#45;&gt;part2 -->
<g id="edge2" class="edge"><title>o&#45;&gt;part2</title>
<path fill="none" stroke="black" d="M434,-241.434C434,-233.67 434,-224.284 434,-215.56"/>
<polygon fill="black" stroke="black" points="437.5,-215.399 434,-205.399 430.5,-215.399 437.5,-215.399"/>
</g>
<!-- part3 -->
<g id="node13" class="node"><title>part3</title>
<ellipse fill="none" stroke="green" cx="662" cy="-187" rx="59.5901" ry="18"/>
<text text-anchor="middle" x="662" y="-183.3" font-family="Times,serif" font-size="14.00">Part3: Deploy</text>
</g>
<!-- o&#45;&gt;part3 -->
<g id="edge3" class="edge"><title>o&#45;&gt;part3</title>
<path fill="none" stroke="black" d="M461.05,-250.136C498.272,-238.626 565.943,-217.702 612.392,-203.339"/>
<polygon fill="black" stroke="black" points="613.444,-206.678 621.963,-200.38 611.376,-199.99 613.444,-206.678"/>
</g>
<!-- p1a1 -->
<g id="node3" class="node"><title>p1a1</title>
<polygon fill="none" stroke="black" points="0,-96.5 0,-132.5 54,-132.5 54,-96.5 0,-96.5"/>
<text text-anchor="middle" x="27" y="-110.8" font-family="Times,serif" font-size="14.00">npm</text>
</g>
<!-- part1&#45;&gt;p1a1 -->
<g id="edge4" class="edge"><title>part1&#45;&gt;p1a1</title>
<path fill="none" stroke="black" d="M149.479,-170.779C126.923,-161.262 97.2201,-148.524 63.2662,-133.037"/>
<polygon fill="black" stroke="black" points="64.613,-129.804 54.0639,-128.82 61.6966,-136.168 64.613,-129.804"/>
</g>
<!-- p1a2 -->
<g id="node4" class="node"><title>p1a2</title>
<polygon fill="none" stroke="black" points="72.5,-96.5 72.5,-132.5 131.5,-132.5 131.5,-96.5 72.5,-96.5"/>
<text text-anchor="middle" x="102" y="-110.8" font-family="Times,serif" font-size="14.00">Node.js</text>
</g>
<!-- part1&#45;&gt;p1a2 -->
<g id="edge5" class="edge"><title>part1&#45;&gt;p1a2</title>
<path fill="none" stroke="black" d="M166.093,-169.292C155.371,-160.294 141.964,-149.041 130.187,-139.157"/>
<polygon fill="black" stroke="black" points="132.257,-136.325 122.347,-132.577 127.757,-141.687 132.257,-136.325"/>
</g>
<!-- p1a3 -->
<g id="node5" class="node"><title>p1a3</title>
<polygon fill="none" stroke="black" points="149.5,-96.5 149.5,-132.5 222.5,-132.5 222.5,-96.5 149.5,-96.5"/>
<text text-anchor="middle" x="186" y="-110.8" font-family="Times,serif" font-size="14.00">JavaScript</text>
</g>
<!-- part1&#45;&gt;p1a3 -->
<g id="edge6" class="edge"><title>part1&#45;&gt;p1a3</title>
<path fill="none" stroke="black" d="M186,-168.934C186,-161.17 186,-151.784 186,-143.06"/>
<polygon fill="black" stroke="black" points="189.5,-142.899 186,-132.899 182.5,-142.899 189.5,-142.899"/>
</g>
<!-- p1a4 -->
<g id="node6" class="node"><title>p1a4</title>
<ellipse fill="none" stroke="black" cx="276" cy="-114.5" rx="35.9954" ry="18"/>
<text text-anchor="middle" x="276" y="-110.8" font-family="Times,serif" font-size="14.00">Theme</text>
</g>
<!-- part1&#45;&gt;p1a4 -->
<g id="edge7" class="edge"><title>part1&#45;&gt;p1a4</title>
<path fill="none" stroke="black" d="M207.329,-169.292C219.984,-159.379 236.132,-146.73 249.589,-136.189"/>
<polygon fill="black" stroke="black" points="251.851,-138.863 257.565,-129.941 247.534,-133.352 251.851,-138.863"/>
</g>
<!-- p1a4b -->
<g id="node7" class="node"><title>p1a4b</title>
<ellipse fill="none" stroke="black" cx="250" cy="-41.5" rx="100.182" ry="18"/>
<text text-anchor="middle" x="250" y="-37.8" font-family="Times,serif" font-size="14.00">Enable complex function</text>
</g>
<!-- p1a4&#45;&gt;p1a4b -->
<g id="edge8" class="edge"><title>p1a4&#45;&gt;p1a4b</title>
<path fill="none" stroke="black" d="M269.838,-96.674C266.839,-88.4828 263.16,-78.4374 259.789,-69.2312"/>
<polygon fill="black" stroke="black" points="263.023,-67.8851 256.298,-59.6984 256.45,-70.2922 263.023,-67.8851"/>
</g>
<!-- p2a -->
<g id="node9" class="node"><title>p2a</title>
<polygon fill="none" stroke="black" points="407,-96.5 407,-132.5 461,-132.5 461,-96.5 407,-96.5"/>
<text text-anchor="middle" x="434" y="-110.8" font-family="Times,serif" font-size="14.00">Git</text>
</g>
<!-- part2&#45;&gt;p2a -->
<g id="edge9" class="edge"><title>part2&#45;&gt;p2a</title>
<path fill="none" stroke="black" d="M434,-168.934C434,-161.17 434,-151.784 434,-143.06"/>
<polygon fill="black" stroke="black" points="437.5,-142.899 434,-132.899 430.5,-142.899 437.5,-142.899"/>
</g>
<!-- p2ab1 -->
<g id="node10" class="node"><title>p2ab1</title>
<polygon fill="none" stroke="black" points="368.5,-23.5 368.5,-59.5 425.5,-59.5 425.5,-23.5 368.5,-23.5"/>
<text text-anchor="middle" x="397" y="-37.8" font-family="Times,serif" font-size="14.00">GitHub</text>
</g>
<!-- p2a&#45;&gt;p2ab1 -->
<g id="edge10" class="edge"><title>p2a&#45;&gt;p2ab1</title>
<path fill="none" stroke="black" d="M425.043,-96.3129C420.68,-87.9407 415.342,-77.6971 410.499,-68.4026"/>
<polygon fill="black" stroke="black" points="413.599,-66.7794 405.874,-59.5288 407.392,-70.0144 413.599,-66.7794"/>
</g>
<!-- p2ab2 -->
<g id="node11" class="node"><title>p2ab2</title>
<polygon fill="none" stroke="black" points="443.5,-23.5 443.5,-59.5 498.5,-59.5 498.5,-23.5 443.5,-23.5"/>
<text text-anchor="middle" x="471" y="-37.8" font-family="Times,serif" font-size="14.00">GitLab</text>
</g>
<!-- p2a&#45;&gt;p2ab2 -->
<g id="edge11" class="edge"><title>p2a&#45;&gt;p2ab2</title>
<path fill="none" stroke="black" d="M442.957,-96.3129C447.32,-87.9407 452.658,-77.6971 457.501,-68.4026"/>
<polygon fill="black" stroke="black" points="460.608,-70.0144 462.126,-59.5288 454.401,-66.7794 460.608,-70.0144"/>
</g>
<!-- p2ab3 -->
<g id="node12" class="node"><title>p2ab3</title>
<polygon fill="none" stroke="black" points="516.5,-23.5 516.5,-59.5 587.5,-59.5 587.5,-23.5 516.5,-23.5"/>
<text text-anchor="middle" x="552" y="-37.8" font-family="Times,serif" font-size="14.00">BitBucket</text>
</g>
<!-- p2a&#45;&gt;p2ab3 -->
<g id="edge12" class="edge"><title>p2a&#45;&gt;p2ab3</title>
<path fill="none" stroke="black" d="M461.072,-97.2112C476.948,-87.6586 497.238,-75.4502 514.622,-64.9904"/>
<polygon fill="black" stroke="black" points="516.644,-67.8581 523.408,-59.7034 513.035,-61.8601 516.644,-67.8581"/>
</g>
<!-- p3a1 -->
<g id="node14" class="node"><title>p3a1</title>
<polygon fill="none" stroke="black" points="479,-96.5 479,-132.5 571,-132.5 571,-96.5 479,-96.5"/>
<text text-anchor="middle" x="525" y="-110.8" font-family="Times,serif" font-size="14.00">GitHub pages</text>
</g>
<!-- part3&#45;&gt;p3a1 -->
<g id="edge13" class="edge"><title>part3&#45;&gt;p3a1</title>
<path fill="none" stroke="#ffff00" d="M632.946,-171.049C613.925,-161.261 588.749,-148.305 567.495,-137.368"/>
<polygon fill="#ffff00" stroke="#ffff00" points="568.843,-134.125 558.35,-132.662 565.64,-140.35 568.843,-134.125"/>
</g>
<!-- p3a2 -->
<g id="node15" class="node"><title>p3a2</title>
<polygon fill="none" stroke="black" points="589.5,-96.5 589.5,-132.5 646.5,-132.5 646.5,-96.5 589.5,-96.5"/>
<text text-anchor="middle" x="618" y="-110.8" font-family="Times,serif" font-size="14.00">Heroku</text>
</g>
<!-- part3&#45;&gt;p3a2 -->
<g id="edge14" class="edge"><title>part3&#45;&gt;p3a2</title>
<path fill="none" stroke="#ffff00" d="M651.349,-168.934C646.237,-160.743 639.999,-150.748 634.307,-141.628"/>
<polygon fill="#ffff00" stroke="#ffff00" points="637.123,-139.529 628.859,-132.899 631.184,-143.235 637.123,-139.529"/>
</g>
<!-- p3a3 -->
<g id="node16" class="node"><title>p3a3</title>
<polygon fill="none" stroke="black" points="664.5,-96.5 664.5,-132.5 719.5,-132.5 719.5,-96.5 664.5,-96.5"/>
<text text-anchor="middle" x="692" y="-110.8" font-family="Times,serif" font-size="14.00">Netlify</text>
</g>
<!-- part3&#45;&gt;p3a3 -->
<g id="edge15" class="edge"><title>part3&#45;&gt;p3a3</title>
<path fill="none" stroke="#ffff00" d="M669.262,-168.934C672.675,-160.914 676.824,-151.164 680.639,-142.199"/>
<polygon fill="#ffff00" stroke="#ffff00" points="683.901,-143.471 684.596,-132.899 677.46,-140.73 683.901,-143.471"/>
</g>
<!-- p3a4 -->
<g id="node17" class="node"><title>p3a4</title>
<polygon fill="none" stroke="black" points="738,-96.5 738,-132.5 792,-132.5 792,-96.5 738,-96.5"/>
<text text-anchor="middle" x="765" y="-110.8" font-family="Times,serif" font-size="14.00">Rsync</text>
</g>
<!-- part3&#45;&gt;p3a4 -->
<g id="edge16" class="edge"><title>part3&#45;&gt;p3a4</title>
<path fill="none" stroke="#ffff00" d="M684.859,-170.354C698.533,-160.994 716.157,-148.931 731.394,-138.502"/>
<polygon fill="#ffff00" stroke="#ffff00" points="733.767,-141.12 740.042,-132.583 729.813,-135.343 733.767,-141.12"/>
</g>
<!-- p3a5 -->
<g id="node18" class="node"><title>p3a5</title>
<polygon fill="none" stroke="black" points="810,-96.5 810,-132.5 920,-132.5 920,-96.5 810,-96.5"/>
<text text-anchor="middle" x="865" y="-110.8" font-family="Times,serif" font-size="14.00">...Other Methods</text>
</g>
<!-- part3&#45;&gt;p3a5 -->
<g id="edge17" class="edge"><title>part3&#45;&gt;p3a5</title>
<path fill="none" stroke="#ffff00" d="M699.707,-172.905C729.682,-162.495 772.139,-147.75 806.518,-135.81"/>
<polygon fill="#ffff00" stroke="#ffff00" points="807.684,-139.11 815.983,-132.523 805.388,-132.498 807.684,-139.11"/>
</g>
<!-- p3a5b -->
<g id="node19" class="node"><title>p3a5b</title>
<ellipse fill="none" stroke="black" cx="865" cy="-41.5" rx="141.875" ry="18"/>
<text text-anchor="middle" x="865" y="-37.8" font-family="Times,serif" font-size="14.00">Copy public folder to where you like</text>
</g>
<!-- p3a5&#45;&gt;p3a5b -->
<g id="edge18" class="edge"><title>p3a5&#45;&gt;p3a5b</title>
<path fill="none" stroke="black" d="M865,-96.3129C865,-88.2895 865,-78.5475 865,-69.5691"/>
<polygon fill="black" stroke="black" points="868.5,-69.5288 865,-59.5288 861.5,-69.5289 868.5,-69.5288"/>
</g>
</g>
</svg>
