<?xml version="1.0" encoding="UTF-8" standalone="no"?>
<!DOCTYPE svg PUBLIC "-//W3C//DTD SVG 1.1//EN"
 "http://www.w3.org/Graphics/SVG/1.1/DTD/svg11.dtd">
<!-- Generated by graphviz version 2.40.1 (20161225.0304)
 -->
<!-- Title: G Pages: 1 -->
<svg width="410pt" height="848pt"
 viewBox="0.00 0.00 410.01 848.00" xmlns="http://www.w3.org/2000/svg" xmlns:xlink="http://www.w3.org/1999/xlink">
<g id="graph0" class="graph" transform="scale(1 1) rotate(0) translate(4 844)">
<title>G</title>
<polygon fill="#ffffff" stroke="transparent" points="-4,4 -4,-844 406.0117,-844 406.0117,4 -4,4"/>
<text text-anchor="middle" x="201.0059" y="-6.8" font-family="Times,serif" font-size="14.00" fill="#000000">A representative events sequence when I learned a complicated thing</text>
<!-- a1 -->
<g id="node1" class="node">
<title>a1</title>
<polygon fill="none" stroke="#000000" points="130.7178,-803.5 130.7178,-839.5 225.6318,-839.5 225.6318,-803.5 130.7178,-803.5"/>
<text text-anchor="middle" x="178.1748" y="-824.3" font-family="Times,serif" font-size="14.00" fill="#000000">Experimental </text>
<text text-anchor="middle" x="178.1748" y="-810.3" font-family="Times,serif" font-size="14.00" fill="#000000"> techniques</text>
</g>
<!-- a2 -->
<g id="node2" class="node">
<title>a2</title>
<polygon fill="none" stroke="#000000" points="117.873,-729.5 117.873,-765.5 238.4766,-765.5 238.4766,-729.5 117.873,-729.5"/>
<text text-anchor="middle" x="178.1748" y="-743.3" font-family="Times,serif" font-size="14.00" fill="#000000">VEGAS algorithm</text>
</g>
<!-- a1&#45;&gt;a2 -->
<g id="edge1" class="edge">
<title>a1&#45;&gt;a2</title>
<path fill="none" stroke="#000000" d="M178.1748,-803.2079C178.1748,-794.9635 178.1748,-785.0376 178.1748,-775.8622"/>
<polygon fill="#000000" stroke="#000000" points="181.6749,-775.5817 178.1748,-765.5817 174.6749,-775.5818 181.6749,-775.5817"/>
</g>
<!-- a3 -->
<g id="node3" class="node">
<title>a3</title>
<polygon fill="none" stroke="#000000" points="132.8472,-655.5 132.8472,-691.5 223.5024,-691.5 223.5024,-655.5 132.8472,-655.5"/>
<text text-anchor="middle" x="178.1748" y="-676.3" font-family="Times,serif" font-size="14.00" fill="#000000">Monte Carlo </text>
<text text-anchor="middle" x="178.1748" y="-662.3" font-family="Times,serif" font-size="14.00" fill="#000000"> integration</text>
</g>
<!-- a2&#45;&gt;a3 -->
<g id="edge2" class="edge">
<title>a2&#45;&gt;a3</title>
<path fill="none" stroke="#000000" d="M178.1748,-729.2079C178.1748,-720.9635 178.1748,-711.0376 178.1748,-701.8622"/>
<polygon fill="#000000" stroke="#000000" points="181.6749,-701.5817 178.1748,-691.5817 174.6749,-701.5818 181.6749,-701.5817"/>
</g>
<!-- a4 -->
<g id="node4" class="node">
<title>a4</title>
<polygon fill="none" stroke="#000000" points="145.6919,-581.5 145.6919,-617.5 210.6577,-617.5 210.6577,-581.5 145.6919,-581.5"/>
<text text-anchor="middle" x="178.1748" y="-595.3" font-family="Times,serif" font-size="14.00" fill="#000000">Variance</text>
</g>
<!-- a3&#45;&gt;a4 -->
<g id="edge3" class="edge">
<title>a3&#45;&gt;a4</title>
<path fill="none" stroke="#000000" d="M178.1748,-655.2079C178.1748,-646.9635 178.1748,-637.0376 178.1748,-627.8622"/>
<polygon fill="#000000" stroke="#000000" points="181.6749,-627.5817 178.1748,-617.5817 174.6749,-627.5818 181.6749,-627.5817"/>
</g>
<!-- a5 -->
<g id="node5" class="node">
<title>a5</title>
<polygon fill="none" stroke="#000000" points="134.2109,-507.5 134.2109,-543.5 222.1387,-543.5 222.1387,-507.5 134.2109,-507.5"/>
<text text-anchor="middle" x="178.1748" y="-528.3" font-family="Times,serif" font-size="14.00" fill="#000000">Chi&#45;squared </text>
<text text-anchor="middle" x="178.1748" y="-514.3" font-family="Times,serif" font-size="14.00" fill="#000000"> test</text>
</g>
<!-- a4&#45;&gt;a5 -->
<g id="edge4" class="edge">
<title>a4&#45;&gt;a5</title>
<path fill="none" stroke="#000000" d="M178.1748,-581.2079C178.1748,-572.9635 178.1748,-563.0376 178.1748,-553.8622"/>
<polygon fill="#000000" stroke="#000000" points="181.6749,-553.5817 178.1748,-543.5817 174.6749,-553.5818 181.6749,-553.5817"/>
</g>
<!-- a6 -->
<g id="node6" class="node">
<title>a6</title>
<polygon fill="none" stroke="#000000" points="134.2109,-433.5 134.2109,-469.5 222.1387,-469.5 222.1387,-433.5 134.2109,-433.5"/>
<text text-anchor="middle" x="178.1748" y="-454.3" font-family="Times,serif" font-size="14.00" fill="#000000">Chi&#45;squared </text>
<text text-anchor="middle" x="178.1748" y="-440.3" font-family="Times,serif" font-size="14.00" fill="#000000"> distribution</text>
</g>
<!-- a5&#45;&gt;a6 -->
<g id="edge5" class="edge">
<title>a5&#45;&gt;a6</title>
<path fill="none" stroke="#000000" d="M178.1748,-507.2079C178.1748,-498.9635 178.1748,-489.0376 178.1748,-479.8622"/>
<polygon fill="#000000" stroke="#000000" points="181.6749,-479.5817 178.1748,-469.5817 174.6749,-479.5818 181.6749,-479.5817"/>
</g>
<!-- a7 -->
<g id="node7" class="node">
<title>a7</title>
<polygon fill="none" stroke="#000000" points="113.9868,-359.5 113.9868,-395.5 242.3628,-395.5 242.3628,-359.5 113.9868,-359.5"/>
<text text-anchor="middle" x="178.1748" y="-373.3" font-family="Times,serif" font-size="14.00" fill="#000000">Gamma distribution</text>
</g>
<!-- a6&#45;&gt;a7 -->
<g id="edge6" class="edge">
<title>a6&#45;&gt;a7</title>
<path fill="none" stroke="#000000" d="M178.1748,-433.2079C178.1748,-424.9635 178.1748,-415.0376 178.1748,-405.8622"/>
<polygon fill="#000000" stroke="#000000" points="181.6749,-405.5817 178.1748,-395.5817 174.6749,-405.5818 181.6749,-405.5817"/>
</g>
<!-- a8 -->
<g id="node8" class="node">
<title>a8</title>
<polygon fill="none" stroke="#000000" points="112.2368,-271.5 112.2368,-321.5 244.1128,-321.5 244.1128,-271.5 112.2368,-271.5"/>
<text text-anchor="middle" x="178.1748" y="-306.3" font-family="Times,serif" font-size="14.00" fill="#000000">Plot the </text>
<text text-anchor="middle" x="178.1748" y="-292.3" font-family="Times,serif" font-size="14.00" fill="#000000"> Gamma distribution</text>
<text text-anchor="middle" x="178.1748" y="-278.3" font-family="Times,serif" font-size="14.00" fill="#000000"> in Python</text>
</g>
<!-- a7&#45;&gt;a8 -->
<g id="edge7" class="edge">
<title>a7&#45;&gt;a8</title>
<path fill="none" stroke="#000000" d="M178.1748,-359.1198C178.1748,-350.9617 178.1748,-341.0761 178.1748,-331.5932"/>
<polygon fill="#000000" stroke="#000000" points="181.6749,-331.5621 178.1748,-321.5621 174.6749,-331.5621 181.6749,-331.5621"/>
</g>
<!-- a9 -->
<g id="node9" class="node">
<title>a9</title>
<polygon fill="none" stroke="#000000" points="104.6558,-197.5 104.6558,-233.5 251.6938,-233.5 251.6938,-197.5 104.6558,-197.5"/>
<text text-anchor="middle" x="178.1748" y="-218.3" font-family="Times,serif" font-size="14.00" fill="#000000">Study the properties </text>
<text text-anchor="middle" x="178.1748" y="-204.3" font-family="Times,serif" font-size="14.00" fill="#000000"> of Gamma distribution</text>
</g>
<!-- a8&#45;&gt;a9 -->
<g id="edge8" class="edge">
<title>a8&#45;&gt;a9</title>
<path fill="none" stroke="#000000" d="M178.1748,-271.3151C178.1748,-262.5697 178.1748,-252.707 178.1748,-243.7319"/>
<polygon fill="#000000" stroke="#000000" points="181.6749,-243.7237 178.1748,-233.7237 174.6749,-243.7238 181.6749,-243.7237"/>
</g>
<!-- a10 -->
<g id="node10" class="node">
<title>a10</title>
<polygon fill="none" stroke="#000000" points="133.4316,-96.5 133.4316,-132.5 222.918,-132.5 222.918,-96.5 133.4316,-96.5"/>
<text text-anchor="middle" x="178.1748" y="-117.3" font-family="Times,serif" font-size="14.00" fill="#000000">A series of</text>
<text text-anchor="middle" x="178.1748" y="-103.3" font-family="Times,serif" font-size="14.00" fill="#000000"> computation</text>
</g>
<!-- a9&#45;&gt;a10 -->
<g id="edge9" class="edge">
<title>a9&#45;&gt;a10</title>
<path fill="none" stroke="#000000" d="M178.1748,-197.4432C178.1748,-182.313 178.1748,-160.4448 178.1748,-142.961"/>
<polygon fill="#000000" stroke="#000000" points="181.6749,-142.7409 178.1748,-132.741 174.6749,-142.741 181.6749,-142.7409"/>
<text text-anchor="middle" x="239.8008" y="-167.8" font-family="Times,serif" font-size="14.00" fill="#006400">To familiarize </text>
<text text-anchor="middle" x="239.8008" y="-153.8" font-family="Times,serif" font-size="14.00" fill="#006400"> language of Statistics</text>
</g>
<!-- a11 -->
<g id="node11" class="node">
<title>a11</title>
<polygon fill="none" stroke="#000000" points="100.585,-22.5 100.585,-58.5 255.7646,-58.5 255.7646,-22.5 100.585,-22.5"/>
<text text-anchor="middle" x="178.1748" y="-43.3" font-family="Times,serif" font-size="14.00" fill="#000000">Manage the computation</text>
<text text-anchor="middle" x="178.1748" y="-29.3" font-family="Times,serif" font-size="14.00" fill="#000000"> via programming</text>
</g>
<!-- a10&#45;&gt;a11 -->
<g id="edge10" class="edge">
<title>a10&#45;&gt;a11</title>
<path fill="none" stroke="#000000" d="M178.1748,-96.2079C178.1748,-87.9635 178.1748,-78.0376 178.1748,-68.8622"/>
<polygon fill="#000000" stroke="#000000" points="181.6749,-68.5817 178.1748,-58.5817 174.6749,-68.5818 181.6749,-68.5817"/>
</g>
</g>
</svg>
