<?xml version="1.0" encoding="UTF-8" standalone="no"?>
<!DOCTYPE svg PUBLIC "-//W3C//DTD SVG 1.1//EN"
 "http://www.w3.org/Graphics/SVG/1.1/DTD/svg11.dtd">
<!-- Generated by graphviz version 2.40.1 (20161225.0304)
 -->
<!-- Title: view_mechanism Pages: 1 -->
<svg width="643pt" height="300pt"
 viewBox="0.00 0.00 643.05 299.91" xmlns="http://www.w3.org/2000/svg" xmlns:xlink="http://www.w3.org/1999/xlink">
<g id="graph0" class="graph" transform="scale(1 1) rotate(0) translate(4 295.9117)">
<title>view_mechanism</title>
<polygon fill="#ffffff" stroke="transparent" points="-4,4 -4,-295.9117 639.0483,-295.9117 639.0483,4 -4,4"/>
<text text-anchor="middle" x="317.5242" y="-6.8" font-family="Times,serif" font-size="14.00" fill="#000000">A software network for particle physics</text>
<!-- A1 -->
<g id="node1" class="node">
<title>A1</title>
<polygon fill="none" stroke="#000000" points="405.0518,-255.4117 405.0518,-291.4117 480.9414,-291.4117 480.9414,-255.4117 405.0518,-255.4117"/>
<text text-anchor="middle" x="442.9966" y="-269.2117" font-family="Times,serif" font-size="14.00" fill="#000000">FeynRules</text>
</g>
<!-- A2 -->
<g id="node2" class="node">
<title>A2</title>
<polygon fill="none" stroke="#000000" points="136.9414,-182.4117 136.9414,-218.4117 205.0518,-218.4117 205.0518,-182.4117 136.9414,-182.4117"/>
<text text-anchor="middle" x="170.9966" y="-196.2117" font-family="Times,serif" font-size="14.00" fill="#000000">FeynArts</text>
</g>
<!-- A1&#45;&gt;A2 -->
<g id="edge1" class="edge">
<title>A1&#45;&gt;A2</title>
<path fill="none" stroke="#000000" d="M404.8897,-263.1845C355.0298,-249.803 267.8264,-226.3991 215.1448,-212.2603"/>
<polygon fill="#000000" stroke="#000000" points="215.9739,-208.859 205.4084,-209.6472 214.1594,-215.6198 215.9739,-208.859"/>
</g>
<!-- A6 -->
<g id="node6" class="node">
<title>A6</title>
<polygon fill="none" stroke="#000000" points="294.8398,-182.4117 294.8398,-218.4117 455.1533,-218.4117 455.1533,-182.4117 294.8398,-182.4117"/>
<text text-anchor="middle" x="374.9966" y="-196.2117" font-family="Times,serif" font-size="14.00" fill="#000000">MadGraph5_aMC@NLO</text>
</g>
<!-- A1&#45;&gt;A6 -->
<g id="edge7" class="edge">
<title>A1&#45;&gt;A6</title>
<path fill="none" stroke="#000000" d="M426.1876,-255.3667C417.9327,-246.5049 407.843,-235.6733 398.8102,-225.9763"/>
<polygon fill="#000000" stroke="#000000" points="401.225,-223.4337 391.8479,-218.502 396.1029,-228.2049 401.225,-223.4337"/>
</g>
<!-- B1 -->
<g id="node8" class="node">
<title>B1</title>
<polygon fill="none" stroke="#000000" points="472.6587,-182.4117 472.6587,-218.4117 549.3345,-218.4117 549.3345,-182.4117 472.6587,-182.4117"/>
<text text-anchor="middle" x="510.9966" y="-196.2117" font-family="Times,serif" font-size="14.00" fill="#000000">CompHEP</text>
</g>
<!-- A1&#45;&gt;B1 -->
<g id="edge5" class="edge">
<title>A1&#45;&gt;B1</title>
<path fill="none" stroke="#000000" d="M459.8056,-255.3667C468.0605,-246.5049 478.1501,-235.6733 487.1829,-225.9763"/>
<polygon fill="#000000" stroke="#000000" points="489.8903,-228.2049 494.1453,-218.502 484.7682,-223.4337 489.8903,-228.2049"/>
</g>
<!-- B2 -->
<g id="node9" class="node">
<title>B2</title>
<polygon fill="none" stroke="#000000" points="566.9448,-182.4117 566.9448,-218.4117 635.0483,-218.4117 635.0483,-182.4117 566.9448,-182.4117"/>
<text text-anchor="middle" x="600.9966" y="-196.2117" font-family="Times,serif" font-size="14.00" fill="#000000">CalcHEP</text>
</g>
<!-- A1&#45;&gt;B2 -->
<g id="edge6" class="edge">
<title>A1&#45;&gt;B2</title>
<path fill="none" stroke="#000000" d="M481.244,-255.7404C504.3032,-245.0865 533.7414,-231.4853 557.6596,-220.4345"/>
<polygon fill="#000000" stroke="#000000" points="559.255,-223.5529 566.8649,-216.1814 556.319,-217.1984 559.255,-223.5529"/>
</g>
<!-- A3 -->
<g id="node3" class="node">
<title>A3</title>
<polygon fill="none" stroke="#000000" points="0,-109.4117 0,-145.4117 71.9932,-145.4117 71.9932,-109.4117 0,-109.4117"/>
<text text-anchor="middle" x="35.9966" y="-123.2117" font-family="Times,serif" font-size="14.00" fill="#000000">FormCalc</text>
</g>
<!-- A2&#45;&gt;A3 -->
<g id="edge2" class="edge">
<title>A2&#45;&gt;A3</title>
<path fill="none" stroke="#000000" d="M137.6258,-182.3667C119.6959,-172.6713 97.4061,-160.6183 78.2739,-150.2727"/>
<polygon fill="#000000" stroke="#000000" points="79.9125,-147.1799 69.4514,-145.502 76.5829,-153.3374 79.9125,-147.1799"/>
</g>
<!-- A4 -->
<g id="node4" class="node">
<title>A4</title>
<polygon fill="none" stroke="#000000" points="90.1689,-109.4117 90.1689,-145.4117 159.8242,-145.4117 159.8242,-109.4117 90.1689,-109.4117"/>
<text text-anchor="middle" x="124.9966" y="-123.2117" font-family="Times,serif" font-size="14.00" fill="#000000">FeynCalc</text>
</g>
<!-- A2&#45;&gt;A4 -->
<g id="edge3" class="edge">
<title>A2&#45;&gt;A4</title>
<path fill="none" stroke="#000000" d="M159.6258,-182.3667C154.2627,-173.8558 147.7549,-163.5282 141.835,-154.1336"/>
<polygon fill="#000000" stroke="#000000" points="144.6884,-152.0965 136.396,-145.502 138.7661,-155.8284 144.6884,-152.0965"/>
</g>
<!-- A5 -->
<g id="node5" class="node">
<title>A5</title>
<polygon fill="none" stroke="#000000" points="177.7646,-109.4117 177.7646,-145.4117 254.2285,-145.4117 254.2285,-109.4117 177.7646,-109.4117"/>
<text text-anchor="middle" x="215.9966" y="-123.2117" font-family="Times,serif" font-size="14.00" fill="#000000">LoopTools</text>
</g>
<!-- A2&#45;&gt;A5 -->
<g id="edge4" class="edge">
<title>A2&#45;&gt;A5</title>
<path fill="none" stroke="#000000" d="M182.1202,-182.3667C187.3666,-173.8558 193.733,-163.5282 199.5242,-154.1336"/>
<polygon fill="#000000" stroke="#000000" points="202.5769,-155.8513 204.845,-145.502 196.6181,-152.178 202.5769,-155.8513"/>
</g>
<!-- A7 -->
<g id="node7" class="node">
<title>A7</title>
<polygon fill="none" stroke="#000000" points="271.9414,-109.4117 271.9414,-145.4117 326.0518,-145.4117 326.0518,-109.4117 271.9414,-109.4117"/>
<text text-anchor="middle" x="298.9966" y="-123.2117" font-family="Times,serif" font-size="14.00" fill="#000000">ROOT</text>
</g>
<!-- A6&#45;&gt;A7 -->
<g id="edge8" class="edge">
<title>A6&#45;&gt;A7</title>
<path fill="none" stroke="#ff0000" d="M356.2101,-182.3667C346.8926,-173.4171 335.4838,-162.4587 325.3123,-152.6886"/>
<polygon fill="#ff0000" stroke="#ff0000" points="327.4669,-149.9052 317.8304,-145.502 322.6178,-154.9536 327.4669,-149.9052"/>
</g>
<!-- C1 -->
<g id="node10" class="node">
<title>C1</title>
<polygon fill="none" stroke="#000000" points="344.0586,-109.4117 344.0586,-145.4117 405.9346,-145.4117 405.9346,-109.4117 344.0586,-109.4117"/>
<text text-anchor="middle" x="374.9966" y="-123.2117" font-family="Times,serif" font-size="14.00" fill="#000000">Delphes</text>
</g>
<!-- A6&#45;&gt;C1 -->
<g id="edge9" class="edge">
<title>A6&#45;&gt;C1</title>
<path fill="none" stroke="#ff0000" d="M374.9966,-182.3667C374.9966,-174.2945 374.9966,-164.5881 374.9966,-155.5934"/>
<polygon fill="#ff0000" stroke="#ff0000" points="378.4967,-155.502 374.9966,-145.502 371.4967,-155.5021 378.4967,-155.502"/>
</g>
<!-- C2 -->
<g id="node12" class="node">
<title>C2</title>
<polygon fill="none" stroke="#000000" points="423.6069,-109.4117 423.6069,-145.4117 482.3862,-145.4117 482.3862,-109.4117 423.6069,-109.4117"/>
<text text-anchor="middle" x="452.9966" y="-123.2117" font-family="Times,serif" font-size="14.00" fill="#000000">Pythia8</text>
</g>
<!-- A6&#45;&gt;C2 -->
<g id="edge10" class="edge">
<title>A6&#45;&gt;C2</title>
<path fill="none" stroke="#ff0000" d="M394.2775,-182.3667C403.9339,-173.3294 415.7789,-162.2436 426.295,-152.4016"/>
<polygon fill="#ff0000" stroke="#ff0000" points="428.7575,-154.8907 433.6672,-145.502 423.9743,-149.7798 428.7575,-154.8907"/>
</g>
<!-- C3 -->
<g id="node14" class="node">
<title>C3</title>
<polygon fill="none" stroke="#000000" points="500.1655,-109.4117 500.1655,-145.4117 597.8276,-145.4117 597.8276,-109.4117 500.1655,-109.4117"/>
<text text-anchor="middle" x="548.9966" y="-123.2117" font-family="Times,serif" font-size="14.00" fill="#000000">MadAnalysis5</text>
</g>
<!-- A6&#45;&gt;C3 -->
<g id="edge11" class="edge">
<title>A6&#45;&gt;C3</title>
<path fill="none" stroke="#ff0000" d="M418.0078,-182.3667C441.7449,-172.4081 471.4107,-159.9621 496.5051,-149.434"/>
<polygon fill="#ff0000" stroke="#ff0000" points="498.0098,-152.5983 505.8771,-145.502 495.3017,-146.1434 498.0098,-152.5983"/>
</g>
<!-- D1 -->
<g id="node11" class="node">
<title>D1</title>
<ellipse fill="none" stroke="#000000" cx="347.9966" cy="-47.4558" rx="60.8873" ry="18"/>
<text text-anchor="middle" x="347.9966" y="-43.2558" font-family="Times,serif" font-size="14.00" fill="#000000">Hadronization</text>
</g>
<!-- C1&#45;&gt;D1 -->
<g id="edge12" class="edge">
<title>C1&#45;&gt;D1</title>
<path fill="none" stroke="#000000" d="M368.8699,-109.2685C365.4868,-99.2501 361.2126,-86.5927 357.4143,-75.3447"/>
<polygon fill="#000000" stroke="#000000" points="360.6145,-73.8819 354.0991,-65.5273 353.9825,-76.1215 360.6145,-73.8819"/>
</g>
<!-- D2 -->
<g id="node13" class="node">
<title>D2</title>
<ellipse fill="none" stroke="#000000" cx="479.9966" cy="-47.4558" rx="53.2223" ry="25.4118"/>
<text text-anchor="middle" x="479.9966" y="-50.2558" font-family="Times,serif" font-size="14.00" fill="#000000">Detector</text>
<text text-anchor="middle" x="479.9966" y="-36.2558" font-family="Times,serif" font-size="14.00" fill="#000000">simulation</text>
</g>
<!-- C2&#45;&gt;D2 -->
<g id="edge13" class="edge">
<title>C2&#45;&gt;D2</title>
<path fill="none" stroke="#000000" d="M459.1233,-109.2685C461.797,-101.3508 465.0273,-91.7848 468.1394,-82.569"/>
<polygon fill="#000000" stroke="#000000" points="471.5546,-83.3949 471.438,-72.8007 464.9225,-81.1553 471.5546,-83.3949"/>
</g>
</g>
</svg>
