<?xml version="1.0" encoding="UTF-8" standalone="no"?>
<!DOCTYPE svg PUBLIC "-//W3C//DTD SVG 1.1//EN"
 "http://www.w3.org/Graphics/SVG/1.1/DTD/svg11.dtd">
<!-- Generated by graphviz version 2.40.1 (20161225.0304)
 -->
<!-- Title: G Pages: 1 -->
<svg width="437pt" height="348pt"
 viewBox="0.00 0.00 436.99 347.71" xmlns="http://www.w3.org/2000/svg" xmlns:xlink="http://www.w3.org/1999/xlink">
<g id="graph0" class="graph" transform="scale(1 1) rotate(0) translate(4 343.7107)">
<title>G</title>
<polygon fill="#ffffff" stroke="transparent" points="-4,4 -4,-343.7107 432.9897,-343.7107 432.9897,4 -4,4"/>
<text text-anchor="middle" x="214.4949" y="-6.8" font-family="Times,serif" font-size="14.00" fill="#000000">Widely used linux distributions</text>
<!-- A -->
<g id="node1" class="node">
<title>A</title>
<ellipse fill="none" stroke="#ff0000" cx="250.2656" cy="-304.3553" rx="123.4686" ry="35.2113"/>
<text text-anchor="middle" x="250.2656" y="-314.1553" font-family="Times,serif" font-size="14.00" fill="#000000">Open source </text>
<text text-anchor="middle" x="250.2656" y="-300.1553" font-family="Times,serif" font-size="14.00" fill="#000000"> software company </text>
<text text-anchor="middle" x="250.2656" y="-286.1553" font-family="Times,serif" font-size="14.00" fill="#000000"> providing linux distribution</text>
</g>
<!-- B1 -->
<g id="node2" class="node">
<title>B1</title>
<polygon fill="none" stroke="#00ff00" points="103.1328,-196.5 103.1328,-232.5 165.3984,-232.5 165.3984,-196.5 103.1328,-196.5"/>
<text text-anchor="middle" x="134.2656" y="-210.3" font-family="Times,serif" font-size="14.00" fill="#000000">Red Hat</text>
</g>
<!-- A&#45;&gt;B1 -->
<g id="edge1" class="edge">
<title>A&#45;&gt;B1</title>
<path fill="none" stroke="#ffff00" d="M207.4011,-271.1518C193.6361,-260.4892 178.6482,-248.8794 165.8448,-238.9617"/>
<polygon fill="#ffff00" stroke="#ffff00" points="167.8304,-236.0726 157.7814,-232.7157 163.5437,-241.6065 167.8304,-236.0726"/>
</g>
<!-- B2 -->
<g id="node3" class="node">
<title>B2</title>
<polygon fill="none" stroke="#00ff00" points="186.0518,-196.5 186.0518,-232.5 242.4795,-232.5 242.4795,-196.5 186.0518,-196.5"/>
<text text-anchor="middle" x="214.2656" y="-210.3" font-family="Times,serif" font-size="14.00" fill="#000000">Debian</text>
</g>
<!-- A&#45;&gt;B2 -->
<g id="edge2" class="edge">
<title>A&#45;&gt;B2</title>
<path fill="none" stroke="#ffff00" d="M236.1408,-269.1C232.5729,-260.1947 228.7918,-250.757 225.3948,-242.2782"/>
<polygon fill="#ffff00" stroke="#ffff00" points="228.5874,-240.8356 221.6193,-232.8546 222.0895,-243.439 228.5874,-240.8356"/>
</g>
<!-- B3 -->
<g id="node4" class="node">
<title>B3</title>
<polygon fill="none" stroke="#00ff00" points="262.2656,-196.5 262.2656,-232.5 316.2656,-232.5 316.2656,-196.5 262.2656,-196.5"/>
<text text-anchor="middle" x="288.8828" y="-210.3" font-family="Times,serif" font-size="14.00" fill="#000000">SUSE</text>
</g>
<!-- A&#45;&gt;B3 -->
<g id="edge3" class="edge">
<title>A&#45;&gt;B3</title>
<path fill="none" stroke="#ffff00" d="M265.5675,-269.1C269.4327,-260.1947 273.5289,-250.757 277.209,-242.2782"/>
<polygon fill="#ffff00" stroke="#ffff00" points="280.5283,-243.4213 281.2992,-232.8546 274.107,-240.6343 280.5283,-243.4213"/>
</g>
<!-- B0C0 -->
<g id="node5" class="node">
<title>B0C0</title>
<polygon fill="none" stroke="#000000" points="334.1328,-196.5 334.1328,-232.5 410.3984,-232.5 410.3984,-196.5 334.1328,-196.5"/>
<text text-anchor="middle" x="372.2656" y="-210.3" font-family="Times,serif" font-size="14.00" fill="#000000">Arch linux</text>
</g>
<!-- A&#45;&gt;B0C0 -->
<g id="edge4" class="edge">
<title>A&#45;&gt;B0C0</title>
<path fill="none" stroke="#000000" d="M295.0012,-271.4068C309.7562,-260.5394 325.8809,-248.6632 339.5647,-238.5849"/>
<polygon fill="#000000" stroke="#000000" points="341.7591,-241.3155 347.7353,-232.567 337.6079,-235.6793 341.7591,-241.3155"/>
</g>
<!-- B1C1 -->
<g id="node6" class="node">
<title>B1C1</title>
<polygon fill="none" stroke="#000000" points="100.8276,-116.5 100.8276,-152.5 155.7036,-152.5 155.7036,-116.5 100.8276,-116.5"/>
<text text-anchor="middle" x="128.2656" y="-130.3" font-family="Times,serif" font-size="14.00" fill="#000000">Fedora</text>
</g>
<!-- B1&#45;&gt;B1C1 -->
<g id="edge5" class="edge">
<title>B1&#45;&gt;B1C1</title>
<path fill="none" stroke="#00f5ff" d="M132.9041,-196.3468C132.16,-186.4251 131.2219,-173.9167 130.3843,-162.7492"/>
<polygon fill="#00f5ff" stroke="#00f5ff" points="133.8599,-162.2916 129.6217,-152.5814 126.8795,-162.8152 133.8599,-162.2916"/>
</g>
<!-- B2C1 -->
<g id="node10" class="node">
<title>B2C1</title>
<polygon fill="none" stroke="#000000" points="173.2656,-116.5 173.2656,-152.5 231.2656,-152.5 231.2656,-116.5 173.2656,-116.5"/>
<text text-anchor="middle" x="202.2656" y="-130.3" font-family="Times,serif" font-size="14.00" fill="#000000">Ubuntu</text>
</g>
<!-- B2&#45;&gt;B2C1 -->
<g id="edge9" class="edge">
<title>B2&#45;&gt;B2C1</title>
<path fill="none" stroke="#00f5ff" d="M211.5426,-196.3468C210.0544,-186.4251 208.1781,-173.9167 206.503,-162.7492"/>
<polygon fill="#00f5ff" stroke="#00f5ff" points="209.9226,-161.9515 204.9778,-152.5814 203,-162.99 209.9226,-161.9515"/>
</g>
<!-- B3C1 -->
<g id="node11" class="node">
<title>B3C1</title>
<polygon fill="none" stroke="#000000" points="249.2363,-109.5 249.2363,-159.5 333.2949,-159.5 333.2949,-109.5 249.2363,-109.5"/>
<text text-anchor="middle" x="291.2656" y="-144.3" font-family="Times,serif" font-size="14.00" fill="#000000">Enterprise </text>
<text text-anchor="middle" x="291.2656" y="-130.3" font-family="Times,serif" font-size="14.00" fill="#000000"> linux </text>
<text text-anchor="middle" x="291.2656" y="-116.3" font-family="Times,serif" font-size="14.00" fill="#000000"> distribution</text>
</g>
<!-- B3&#45;&gt;B3C1 -->
<g id="edge10" class="edge">
<title>B3&#45;&gt;B3C1</title>
<path fill="none" stroke="#00f5ff" d="M289.7195,-196.3468C289.9171,-188.442 290.1557,-178.8952 290.3858,-169.6929"/>
<polygon fill="#00f5ff" stroke="#00f5ff" points="293.8881,-169.6397 290.6392,-159.5553 286.8903,-169.4647 293.8881,-169.6397"/>
</g>
<!-- B3C2 -->
<g id="node12" class="node">
<title>B3C2</title>
<polygon fill="none" stroke="#000000" points="351.5415,-116.5 351.5415,-152.5 428.9897,-152.5 428.9897,-116.5 351.5415,-116.5"/>
<text text-anchor="middle" x="390.2656" y="-130.3" font-family="Times,serif" font-size="14.00" fill="#000000">openSUSE</text>
</g>
<!-- B3&#45;&gt;B3C2 -->
<g id="edge11" class="edge">
<title>B3&#45;&gt;B3C2</title>
<path fill="none" stroke="#00f5ff" d="M312.1841,-196.3468C326.1307,-185.3 344.1258,-171.0464 359.325,-159.0075"/>
<polygon fill="#00f5ff" stroke="#00f5ff" points="361.7721,-161.5341 367.4379,-152.5814 357.4258,-156.0468 361.7721,-161.5341"/>
</g>
<!-- B1C1D1 -->
<g id="node7" class="node">
<title>B1C1D1</title>
<polygon fill="none" stroke="#000000" points="0,-22.5 0,-72.5 80.5313,-72.5 80.5313,-22.5 0,-22.5"/>
<text text-anchor="middle" x="40.2656" y="-57.3" font-family="Times,serif" font-size="14.00" fill="#000000">Red Hat </text>
<text text-anchor="middle" x="40.2656" y="-43.3" font-family="Times,serif" font-size="14.00" fill="#000000"> Enterprise </text>
<text text-anchor="middle" x="40.2656" y="-29.3" font-family="Times,serif" font-size="14.00" fill="#000000"> Linux</text>
</g>
<!-- B1C1&#45;&gt;B1C1D1 -->
<g id="edge6" class="edge">
<title>B1C1&#45;&gt;B1C1D1</title>
<path fill="none" stroke="#000000" d="M110.032,-116.4735C99.3427,-105.9057 85.5208,-92.2409 73.0029,-79.8653"/>
<polygon fill="#000000" stroke="#000000" points="75.3888,-77.3024 65.8168,-72.7608 70.4674,-82.2803 75.3888,-77.3024"/>
</g>
<!-- B1C1D2 -->
<g id="node8" class="node">
<title>B1C1D2</title>
<polygon fill="none" stroke="#000000" points="98.0967,-29.5 98.0967,-65.5 158.4346,-65.5 158.4346,-29.5 98.0967,-29.5"/>
<text text-anchor="middle" x="128.2656" y="-43.3" font-family="Times,serif" font-size="14.00" fill="#000000">CentOS</text>
</g>
<!-- B1C1&#45;&gt;B1C1D2 -->
<g id="edge7" class="edge">
<title>B1C1&#45;&gt;B1C1D2</title>
<path fill="none" stroke="#000000" d="M128.2656,-116.4735C128.2656,-104.6918 128.2656,-89.0607 128.2656,-75.6581"/>
<polygon fill="#000000" stroke="#000000" points="131.7657,-75.5033 128.2656,-65.5034 124.7657,-75.5034 131.7657,-75.5033"/>
</g>
<!-- B1C1D3 -->
<g id="node9" class="node">
<title>B1C1D3</title>
<polygon fill="none" stroke="#000000" points="176.4741,-29.5 176.4741,-65.5 262.0571,-65.5 262.0571,-29.5 176.4741,-29.5"/>
<text text-anchor="middle" x="219.2656" y="-43.3" font-family="Times,serif" font-size="14.00" fill="#000000">Oracle linux</text>
</g>
<!-- B1C1&#45;&gt;B1C1D3 -->
<g id="edge8" class="edge">
<title>B1C1&#45;&gt;B1C1D3</title>
<path fill="none" stroke="#000000" d="M147.1209,-116.4735C160.4205,-103.7586 178.4095,-86.5603 193.0971,-72.5183"/>
<polygon fill="#000000" stroke="#000000" points="195.625,-74.9437 200.4345,-65.5034 190.7877,-69.884 195.625,-74.9437"/>
</g>
</g>
</svg>
